<svg width="2539" height="674" viewBox="0 0 2539 674" fill="none" xmlns="http://www.w3.org/2000/svg">
<path d="M643.967 233.563V487H585.016V233.563H643.967ZM719.447 296.922C713.938 292.515 708.795 289.209 704.021 287.005C699.246 284.802 693.185 283.7 685.839 283.7C675.922 283.7 667.842 286.271 661.597 291.413C655.353 296.555 650.762 303.718 647.824 312.9C645.253 321.715 643.967 332.183 643.967 344.304L624.133 332.734C624.133 312.533 627.806 294.719 635.152 279.292C642.865 263.498 652.599 251.01 664.352 241.828C676.473 232.645 688.961 228.054 701.817 228.054C710.999 228.054 719.631 229.523 727.711 232.461C735.792 235.032 742.587 239.807 748.097 246.786L719.447 296.922ZM826.396 408.214C826.396 416.662 828.416 424.008 832.456 430.252C836.497 436.129 842.006 440.537 848.985 443.475C856.331 446.413 864.595 447.883 873.778 447.883C885.531 447.883 896.183 445.495 905.733 440.72C915.65 435.945 923.547 428.967 929.423 419.784C935.668 410.234 938.79 399.215 938.79 386.727L947.605 419.784C947.605 435.945 942.83 449.535 933.28 460.554C924.098 471.206 912.344 479.287 898.019 484.796C884.062 489.938 869.737 492.509 855.045 492.509C839.251 492.509 824.559 489.387 810.969 483.143C797.379 476.899 786.544 467.717 778.463 455.596C770.383 443.475 766.342 428.783 766.342 411.52C766.342 386.911 774.974 367.444 792.237 353.119C809.5 338.427 833.926 331.081 865.513 331.081C882.409 331.081 896.917 332.918 909.038 336.591C921.526 340.264 931.811 344.671 939.891 349.814C947.972 354.589 953.665 358.996 956.971 363.036V393.339C945.585 385.258 933.464 379.381 920.608 375.708C907.753 372.035 894.163 370.199 879.838 370.199C867.35 370.199 857.249 371.852 849.536 375.157C841.822 378.096 835.946 382.32 831.905 387.829C828.232 393.339 826.396 400.134 826.396 408.214ZM807.664 299.677L783.422 257.805C794.808 250.826 809.5 244.031 827.498 237.42C845.863 230.809 866.799 227.503 890.306 227.503C911.242 227.503 929.607 230.625 945.401 236.869C961.562 243.113 974.234 252.112 983.416 263.865C992.599 275.252 997.19 289.393 997.19 306.289V487H938.79V317.859C938.79 309.778 937.32 303.167 934.382 298.024C931.811 292.882 928.138 288.658 923.363 285.353C918.588 282.047 912.895 279.659 906.284 278.19C899.672 276.721 892.51 275.986 884.797 275.986C873.043 275.986 861.84 277.456 851.189 280.394C840.904 282.965 831.905 286.271 824.192 290.311C816.846 293.984 811.337 297.106 807.664 299.677ZM1229.64 332.734C1229.64 314.002 1225.78 299.861 1218.07 290.311C1210.36 280.761 1198.42 275.986 1182.26 275.986C1171.24 275.986 1161.51 278.374 1153.06 283.149C1144.61 287.556 1138 294.168 1133.22 302.983C1128.45 311.431 1126.06 321.348 1126.06 332.734V487H1066.56V233.563H1126.06V272.681C1134.14 257.621 1144.43 246.419 1156.91 239.073C1169.77 231.727 1185.01 228.054 1202.64 228.054C1231.29 228.054 1253.15 236.869 1268.21 254.499C1283.26 271.762 1290.79 295.637 1290.79 326.123V487H1229.64V332.734ZM1364.58 132.74C1364.58 122.455 1368.25 113.824 1375.6 106.845C1383.31 99.8662 1392.13 96.3769 1402.04 96.3769C1412.69 96.3769 1421.51 99.8662 1428.49 106.845C1435.83 113.824 1439.51 122.455 1439.51 132.74C1439.51 142.657 1435.83 151.288 1428.49 158.634C1421.51 165.613 1412.69 169.102 1402.04 169.102C1392.13 169.102 1383.31 165.613 1375.6 158.634C1368.25 151.288 1364.58 142.657 1364.58 132.74ZM1372.84 233.563H1431.24V487H1372.84V233.563ZM1477.87 233.563H1621.67V285.903H1477.87V233.563ZM1520.29 145.411H1579.24V487H1520.29V145.411ZM1660.5 132.74C1660.5 122.455 1664.17 113.824 1671.52 106.845C1679.23 99.8662 1688.05 96.3769 1697.96 96.3769C1708.61 96.3769 1717.43 99.8662 1724.41 106.845C1731.75 113.824 1735.43 122.455 1735.43 132.74C1735.43 142.657 1731.75 151.288 1724.41 158.634C1717.43 165.613 1708.61 169.102 1697.96 169.102C1688.05 169.102 1679.23 165.613 1671.52 158.634C1664.17 151.288 1660.5 142.657 1660.5 132.74ZM1668.76 233.563H1727.16V487H1668.76V233.563ZM1846.51 408.214C1846.51 416.662 1848.53 424.008 1852.57 430.252C1856.61 436.129 1862.12 440.537 1869.1 443.475C1876.45 446.413 1884.71 447.883 1893.89 447.883C1905.65 447.883 1916.3 445.495 1925.85 440.72C1935.77 435.945 1943.66 428.967 1949.54 419.784C1955.78 410.234 1958.91 399.215 1958.91 386.727L1967.72 419.784C1967.72 435.945 1962.95 449.535 1953.4 460.554C1944.21 471.206 1932.46 479.287 1918.14 484.796C1904.18 489.938 1889.85 492.509 1875.16 492.509C1859.37 492.509 1844.68 489.387 1831.09 483.143C1817.5 476.899 1806.66 467.717 1798.58 455.596C1790.5 443.475 1786.46 428.783 1786.46 411.52C1786.46 386.911 1795.09 367.444 1812.35 353.119C1829.62 338.427 1854.04 331.081 1885.63 331.081C1902.53 331.081 1917.03 332.918 1929.16 336.591C1941.64 340.264 1951.93 344.671 1960.01 349.814C1968.09 354.589 1973.78 358.996 1977.09 363.036V393.339C1965.7 385.258 1953.58 379.381 1940.73 375.708C1927.87 372.035 1914.28 370.199 1899.96 370.199C1887.47 370.199 1877.37 371.852 1869.65 375.157C1861.94 378.096 1856.06 382.32 1852.02 387.829C1848.35 393.339 1846.51 400.134 1846.51 408.214ZM1827.78 299.677L1803.54 257.805C1814.93 250.826 1829.62 244.031 1847.61 237.42C1865.98 230.809 1886.92 227.503 1910.42 227.503C1931.36 227.503 1949.72 230.625 1965.52 236.869C1981.68 243.113 1994.35 252.112 2003.53 263.865C2012.72 275.252 2017.31 289.393 2017.31 306.289V487H1958.91V317.859C1958.91 309.778 1957.44 303.167 1954.5 298.024C1951.93 292.882 1948.26 288.658 1943.48 285.353C1938.71 282.047 1933.01 279.659 1926.4 278.19C1919.79 276.721 1912.63 275.986 1904.91 275.986C1893.16 275.986 1881.96 277.456 1871.31 280.394C1861.02 282.965 1852.02 286.271 1844.31 290.311C1836.96 293.984 1831.45 297.106 1827.78 299.677ZM2249.76 332.734C2249.76 314.002 2245.9 299.861 2238.19 290.311C2230.47 280.761 2218.54 275.986 2202.37 275.986C2191.36 275.986 2181.62 278.374 2173.17 283.149C2164.73 287.556 2158.12 294.168 2153.34 302.983C2148.57 311.431 2146.18 321.348 2146.18 332.734V487H2086.68V233.563H2146.18V272.681C2154.26 257.621 2164.54 246.419 2177.03 239.073C2189.89 231.727 2205.13 228.054 2222.76 228.054C2251.41 228.054 2273.26 236.869 2288.32 254.499C2303.38 271.762 2310.91 295.637 2310.91 326.123V487H2249.76V332.734Z" fill="white"/>
<path d="M357.127 588.2C363.139 592.924 368.721 595.286 373.874 595.286C379.457 595.286 384.825 592.924 389.978 588.2C395.56 583.906 398.781 578.109 399.639 570.809C399.639 564.368 397.063 558.571 391.91 553.418C385.898 548.694 379.672 546.332 373.23 546.332C367.219 546.332 361.851 548.694 357.127 553.418C352.404 558.141 350.042 563.724 350.042 570.165C350.042 576.606 352.404 582.618 357.127 588.2ZM456.966 447.138C454.39 449.285 452.028 451.002 449.881 452.291C447.734 453.579 442.796 457.014 435.066 462.597C411.019 476.338 386.113 483.208 360.348 483.208C334.583 483.208 311.824 475.908 292.071 461.308C272.318 446.708 260.938 434.47 257.932 424.593L259.221 422.661L299.8 396.896H302.377C320.842 420.084 342.312 431.679 366.789 431.679C386.542 431.679 403.504 426.526 417.675 416.22C435.281 403.767 444.084 386.161 444.084 363.402C444.084 340.643 435.71 322.607 418.963 309.295C402.216 295.983 381.389 289.327 356.483 289.327C345.748 289.327 337.589 289.757 332.006 290.616C326.424 291.904 321.701 293.836 317.836 296.413C313.971 299.419 306.027 308.007 294.003 322.178L292.071 323.466C285.63 321.319 273.177 311.013 254.712 292.548V289.972C269.312 252.183 305.812 233.289 364.213 233.289C397.707 233.289 426.907 245.527 451.813 270.004L456.966 274.513V233.289L505.276 233.289V535.382C505.276 555.994 502.27 572.742 496.258 585.624C487.669 604.518 473.499 619.333 453.746 630.068C433.993 641.233 412.737 646.816 389.978 646.816C367.648 646.816 347.036 639.73 328.142 625.56C309.677 611.389 300.444 593.139 300.444 570.809C300.444 548.909 307.315 531.088 321.056 517.347C334.798 504.035 351.76 497.379 371.942 497.379C392.125 497.379 408.657 505.753 421.54 522.5C434.422 539.247 440.863 557.497 440.863 577.25C440.863 582.403 440.219 586.053 438.931 588.2C450.954 579.612 456.966 565.656 456.966 546.332V447.138ZM248.271 517.991C216.923 510.262 192.876 494.803 176.129 471.614C161.958 452.291 152.94 437.905 149.076 428.458C141.346 410.423 137.481 389.596 137.481 365.978C137.481 342.79 141.346 323.681 149.076 308.651C151.652 301.781 160.67 287.61 176.129 266.139C193.735 243.38 217.782 227.706 248.271 219.118V262.274C228.947 269.574 212.629 282.886 199.317 302.21C185.576 321.963 178.705 343.863 178.705 367.91C178.705 391.958 185.146 413.858 198.029 433.611C210.911 453.794 227.659 467.75 248.271 475.479V517.991Z" fill="white"/>
</svg>
